<svg width="22" height="20" viewBox="0 0 22 20" fill="none" xmlns="http://www.w3.org/2000/svg">
<path d="M2.50488 1.5498C5.19231 -0.746315 8.65231 -0.326389 10.9922 1.71875C13.3294 -0.327703 16.7531 -0.717565 19.4707 1.54102C22.3514 3.93529 22.7768 7.96616 20.7188 10.8945L20.5117 11.1738C19.6392 12.2965 17.9364 13.9836 16.2998 15.5283C15.4719 16.3098 14.6447 17.0699 13.9229 17.7246L12.1768 19.2891C12.0978 19.359 11.9961 19.4509 11.8984 19.5244C11.8163 19.5863 11.7073 19.6597 11.5693 19.7188L11.4219 19.7715C11.1778 19.8443 10.918 19.8534 10.6699 19.7988L10.5645 19.7715C10.3547 19.7089 10.1973 19.6068 10.0879 19.5244L9.80957 19.2891C8.99484 18.5675 7.34217 17.0911 5.68652 15.5283C4.25455 14.1767 2.77166 12.7162 1.83887 11.6201L1.47461 11.1738C-0.823684 8.21605 -0.401658 4.03336 2.50488 1.5498ZM14.2803 6C12.8473 6.00015 11.7976 6.77875 11 7.55566C10.2024 6.77879 9.15262 6.00013 7.71973 6C6.87428 6.00006 6.19082 6.35993 5.72559 6.90625L5.63574 7.01758C5.19172 7.59863 5.00005 8.32427 5 9C5 9.6757 5.19181 10.4013 5.63574 10.9824L5.72559 11.0938C6.19082 11.6401 6.87425 11.9999 7.71973 12C9.15305 11.9999 10.2023 11.2205 11 10.4434C11.7977 11.2204 12.847 11.9998 14.2803 12C15.1821 12 15.8992 11.5908 16.3643 10.9824L16.5195 10.7578C16.8535 10.2205 17 9.59125 17 9C17 8.40879 16.8535 7.77944 16.5195 7.24219L16.3643 7.01758C15.8992 6.40934 15.1819 6 14.2803 6ZM7.71973 8C8.39518 8.00012 8.94842 8.35349 9.6123 9C8.94829 9.64665 8.39525 9.99988 7.71973 10C7.53603 9.99996 7.40949 9.94855 7.3125 9.86328L7.22461 9.76758C7.09549 9.59842 7 9.32359 7 9C7.00006 8.67636 7.09542 8.40151 7.22461 8.23242L7.3125 8.13672C7.40949 8.05147 7.53604 8.00004 7.71973 8ZM14.2803 8C14.5249 8 14.6677 8.09156 14.7754 8.23242L14.8223 8.30078C14.9269 8.47106 15 8.71694 15 9C15 9.28312 14.9269 9.52889 14.8223 9.69922L14.7754 9.76758C14.6676 9.9086 14.5251 10 14.2803 10C13.6046 9.99985 13.0509 9.6469 12.3867 9C13.0509 8.35312 13.6046 8.00015 14.2803 8Z" fill="blue"/>
</svg>
